<svg width="70" height="70" viewBox="0 0 70 70" fill="none" xmlns="http://www.w3.org/2000/svg">
<g clip-path="url(#clip0_184_122)">
<path d="M70 0H0V70H70V0Z" fill="#0A0C10"/>
<path d="M53 0.5H17C7.8873 0.5 0.5 7.8873 0.5 17V53C0.5 62.1127 7.8873 69.5 17 69.5H53C62.1127 69.5 69.5 62.1127 69.5 53V17C69.5 7.8873 62.1127 0.5 53 0.5Z" fill="#0B2A33" stroke="#0E7490"/>
<path fill-rule="evenodd" clip-rule="evenodd" d="M31.4099 25.9143H34.6887V30.5363C34.6887 31.0118 35.2477 31.1787 35.4559 30.7639L38.9462 23.7756C39.101 23.467 38.9032 23.0842 38.5901 23.0842H35.3113V18.4637C35.3113 17.9882 34.7523 17.8213 34.5441 18.2361L31.0538 25.2244C30.899 25.533 31.0968 25.9158 31.4099 25.9158V25.9143Z" fill="#34A8C7"/>
<path fill-rule="evenodd" clip-rule="evenodd" d="M55 34.2454C55 31.4282 50.1034 31.917 49.227 32.5655C48.6449 30.3262 48.018 27.6586 47.388 25.3671C47.2776 24.9673 47.0377 24.6212 46.7051 24.3944C46.0463 23.9442 45.1251 23.7141 44.4327 23.6334C42.7952 23.3647 41.1576 23.1715 39.5184 23.0421C39.5024 23.1967 39.4704 23.3495 39.4032 23.4923L38.7476 24.9001C40.5082 24.9824 42.2673 25.1151 44.0218 25.3133L44.9429 25.4175C45.4355 25.4729 45.8401 25.8475 45.9552 26.3532L47.4153 33.1752L35.8583 33.5751C35.2858 33.5952 34.7133 33.5952 34.1424 33.5751L22.7065 33.1752L24.0738 26.3682C24.1842 25.8558 24.592 25.4728 25.0893 25.4157L25.9784 25.3149C27.4752 25.1452 28.9769 25.0192 30.4783 24.9336C30.4511 24.6765 30.4847 24.4145 30.595 24.1776L31.1435 23C29.2709 23.1243 27.3966 23.3276 25.5162 23.6333C24.7821 23.719 23.821 23.9743 23.1446 24.4817C22.8551 24.7001 22.6552 25.0243 22.5561 25.3838C21.934 27.6718 21.3535 30.3312 20.773 32.5653C19.6904 31.7523 15 31.6447 15 34.1898C15 36.3014 16.8023 36.2477 18.1951 36.2477C17.7825 37.0608 17.4739 38.3039 17.4739 40.0913C17.4227 43.5015 17.4227 47.3986 17.4227 50.8627C17.4227 51.5129 17.9376 52 18.5053 52H22.5831C23.1812 52 23.6658 51.491 23.6658 50.8627V49.0787H46.2809V50.8627C46.2809 51.5129 46.7958 52 47.3635 52H51.4413C52.065 52 52.5751 51.4658 52.5751 50.809C52.5751 47.3568 52.524 43.483 52.524 40.0895C52.4728 38.3038 52.1626 37.0573 51.8027 36.2459C53.1412 36.2459 54.9978 36.2996 54.9978 34.2418L55 34.2454ZM29.4342 42.1512C27.6432 42.2369 24.5325 41.9496 23.3044 41.8253C22.9973 41.7934 22.7479 41.5498 22.6967 41.2289C22.5736 40.4394 22.4664 39.6515 22.3465 38.862C22.2777 38.4134 22.6007 38.0035 23.0341 37.9901C24.8252 37.9363 26.4658 38.1732 27.9897 38.7376C28.7109 39.1711 29.2786 39.9841 29.7936 40.9047C30.051 41.5011 30.051 41.9882 29.4321 42.1512L29.4342 42.1512ZM47.6249 38.8435C47.5162 39.633 47.3946 40.4226 47.2891 41.2122C47.2443 41.5397 46.9965 41.7951 46.6814 41.8253C45.4357 41.9496 42.3126 42.2352 40.5659 42.1512C39.947 41.9883 39.947 41.5011 40.2045 40.9047C40.7194 39.9841 41.2871 39.1711 42.0083 38.7377C43.4891 38.1715 45.1635 37.9347 46.9319 37.9901C47.3573 38.0036 47.6835 38.4 47.6227 38.8435L47.6249 38.8435Z" fill="#34A8C7"/>
<rect width="70" height="70" fill="#0A0C10" fill-opacity="0.8"/>
</g>
<defs>
<clipPath id="clip0_184_122">
<rect width="70" height="70" fill="white"/>
</clipPath>
</defs>
</svg>
