<svg width="70" height="70" viewBox="0 0 70 70" fill="none" xmlns="http://www.w3.org/2000/svg">
<rect width="70" height="70" fill="#0A0C10"/>
<rect width="70" height="70" rx="17" fill="#2E270F"/>
<rect x="0.5" y="0.5" width="69" height="69" rx="16.5" stroke="#EAB308" stroke-opacity="0.58"/>
<path d="M33.4545 24.1818V18H36.5455V24.1818H33.4545ZM43.7318 28.4318L41.6068 26.3068L45.9341 21.8636L48.0977 24.0659L43.7318 28.4318ZM45.8182 36.5455V33.4545H52V36.5455H45.8182ZM33.4545 52V45.8182H36.5455V52H33.4545ZM26.2682 28.3545L21.8636 24.0659L24.0659 21.9023L28.4318 26.2682L26.2682 28.3545ZM45.8955 48.1364L41.6068 43.6932L43.6932 41.6068L48.0977 45.8568L45.8955 48.1364ZM18 36.5455V33.4545H24.1818V36.5455H18ZM24.0659 48.1364L21.9023 45.9341L26.2295 41.6068L27.35 42.65L28.4705 43.7318L24.0659 48.1364ZM35 44.2727C32.4242 44.2727 30.2348 43.3712 28.4318 41.5682C26.6288 39.7652 25.7273 37.5758 25.7273 35C25.7273 32.4242 26.6288 30.2348 28.4318 28.4318C30.2348 26.6288 32.4242 25.7273 35 25.7273C37.5758 25.7273 39.7652 26.6288 41.5682 28.4318C43.3712 30.2348 44.2727 32.4242 44.2727 35C44.2727 37.5758 43.3712 39.7652 41.5682 41.5682C39.7652 43.3712 37.5758 44.2727 35 44.2727Z" fill="#EAB308"/>
</svg>
