<svg width="70" height="70" viewBox="0 0 70 70" fill="none" xmlns="http://www.w3.org/2000/svg">
<rect width="70" height="70" fill="#0A0C10"/>
<rect width="70" height="70" rx="17" fill="#313336"/>
<rect x="0.5" y="0.5" width="69" height="69" rx="16.5" stroke="white" stroke-opacity="0.58"/>
<path d="M31.125 51V45.6667L25 39.4444V29.6667C25 28.6889 25.3427 27.8519 26.0281 27.1556C26.7135 26.4593 27.5375 26.1111 28.5 26.1111H30.25L28.5 27.8889V19H32V26.1111H39V19H42.5V27.8889L40.75 26.1111H42.5C43.4625 26.1111 44.2865 26.4593 44.9719 27.1556C45.6573 27.8519 46 28.6889 46 29.6667V39.4444L39.875 45.6667V51H31.125Z" fill="white" fill-opacity="0.85"/>
<rect width="70" height="70" fill="#0A0C10" fill-opacity="0.8"/>
</svg>
