<svg width="70" height="70" viewBox="0 0 70 70" fill="none" xmlns="http://www.w3.org/2000/svg">
<rect width="70" height="70" fill="#0A0C10"/>
<rect x="0.5" y="0.5" width="69" height="69" rx="16.5" fill="#0E2A1C" stroke="#1A8442"/>
<path d="M28.3333 51.6667C27.8611 51.6667 27.4652 51.507 27.1458 51.1875C26.8263 50.8681 26.6666 50.4723 26.6666 50V23.3334C26.6666 22.8612 26.8263 22.4653 27.1458 22.1459C27.4652 21.8264 27.8611 21.6667 28.3333 21.6667H31.6666V18.3334H38.3333V21.6667H41.6666C42.1388 21.6667 42.5347 21.8264 42.8541 22.1459C43.1736 22.4653 43.3333 22.8612 43.3333 23.3334V35C40.5555 35.0278 38.1944 36.007 36.25 37.9375C34.3055 39.8681 33.3333 42.2223 33.3333 45C33.3333 46.2778 33.5555 47.4862 34 48.625C34.4444 49.7639 35.0694 50.7778 35.875 51.6667H28.3333ZM30 28.3334H40V25H30V28.3334ZM42.5 51.6667V46.6667H38.3333L44.1666 38.3334V43.3334H48.3333L42.5 51.6667Z" fill="#22C55E"/>
<rect width="70" height="70" fill="#0A0C10" fill-opacity="0.7"/>
</svg>
