<svg width="165" height="121" viewBox="0 0 165 121" fill="none" xmlns="http://www.w3.org/2000/svg">
<rect width="165" height="121" fill="#0A0C10"/>
<path d="M90.6922 109.01C90.6922 115.61 85.3031 121 78.7041 121C72.1052 121 66.716 115.61 66.716 109.01C66.716 102.41 72.1052 97.0201 78.7041 97.0201C85.3031 97.0201 90.6922 102.41 90.6922 109.01ZM78.7591 64.6803C66.881 64.6803 55.7185 69.3003 47.4141 77.7153C45.2694 79.8603 45.3244 83.3802 47.4691 85.4702C49.6137 87.6152 53.1332 87.6152 55.2778 85.4152C61.4919 79.1453 69.8505 75.6803 78.8141 75.6803C87.7777 75.6803 96.0814 79.1453 102.35 85.4152C103.45 86.5152 104.825 87.0652 106.255 87.0652C107.63 87.0652 109.059 86.5152 110.104 85.4702C112.249 83.3252 112.304 79.8603 110.159 77.7153C101.745 69.3553 90.638 64.6803 78.7599 64.6803H78.7591ZM125.172 62.5904C126.272 63.6903 127.646 64.1853 129.076 64.1853C130.506 64.1853 131.881 63.6354 132.981 62.5904C135.125 60.4454 135.125 56.9804 132.981 54.8354C118.518 40.3705 99.2702 32.3955 78.7591 32.3955C58.2481 32.3955 39.0011 40.3705 24.5377 54.8354C22.393 56.9804 22.393 60.4454 24.5377 62.5904C26.6823 64.7353 30.1468 64.7353 32.2915 62.5904C44.6645 50.2154 61.1626 43.3405 78.7599 43.3405C96.3571 43.3405 112.799 50.1604 125.173 62.5904H125.172ZM148.104 39.6548C149.204 40.6998 150.579 41.2498 152.008 41.2498C153.438 41.2498 154.813 40.6998 155.913 39.6548C158.057 37.5098 158.057 34.0448 155.913 31.8998C135.236 11.3299 107.85 0 78.7606 0C49.6709 0 22.2852 11.3299 1.6085 31.8998C-0.536165 34.0448 -0.536165 37.5098 1.6085 39.6548C3.75316 41.7997 7.21761 41.7997 9.36227 39.6548C27.9493 21.1749 52.5855 10.9992 78.7613 10.9992C104.937 10.9992 129.573 21.1741 148.106 39.6548H148.104ZM150.744 98.9987L163.337 86.4037C165.481 84.2588 165.481 80.7938 163.337 78.6488C161.192 76.5038 157.727 76.5038 155.583 78.6488L142.99 91.2437L130.397 78.6488C128.252 76.5038 124.788 76.5038 122.643 78.6488C120.498 80.7938 120.498 84.2588 122.643 86.4037L135.236 98.9987L122.643 111.594C120.498 113.739 120.498 117.204 122.643 119.349C123.688 120.449 125.063 120.999 126.492 120.999C127.922 120.999 129.297 120.449 130.397 119.404L142.99 106.754L155.583 119.349C156.683 120.449 158.057 120.999 159.487 120.999C160.917 120.999 162.292 120.449 163.392 119.404C165.536 117.259 165.536 113.794 163.392 111.649L150.744 98.9987Z" fill="white"/>
</svg>
