<svg width="55" height="55" viewBox="0 0 55 55" fill="none" xmlns="http://www.w3.org/2000/svg">
<rect width="55" height="55" fill="#0A0C10"/>
<path d="M26.8973 25.2898C27.938 25.2898 28.7815 26.1333 28.7815 27.1741V37.3491C28.7815 38.3898 27.938 39.2333 26.8973 39.2333C25.8565 39.2333 25.013 38.3898 25.013 37.3491V27.1741C25.013 26.1333 25.8565 25.2898 26.8973 25.2898Z" fill="#5C5C5C"/>
<path d="M26.8972 18.1296C28.3546 18.1296 29.5352 19.3102 29.5352 20.7676C29.5352 22.2249 28.3546 23.4056 26.8972 23.4056C25.4399 23.4056 24.2593 22.2249 24.2593 20.7676C24.2593 19.3102 25.4399 18.1296 26.8972 18.1296Z" fill="#5C5C5C"/>
<path fill-rule="evenodd" clip-rule="evenodd" d="M26.9583 11C36.3237 11 43.9167 18.5929 43.9167 27.9583C43.9167 37.3237 36.3237 44.9167 26.9583 44.9167C17.5929 44.9167 10 37.3237 10 27.9583C10 18.5929 17.5929 11 26.9583 11ZM26.9583 14.7685C19.6744 14.7685 13.7685 20.6744 13.7685 27.9583C13.7685 35.2423 19.6744 41.1481 26.9583 41.1481C34.2423 41.1481 40.1481 35.2423 40.1481 27.9583C40.1481 20.6744 34.2423 14.7685 26.9583 14.7685Z" fill="#5C5C5C"/>
</svg>
